<svg id="Capa_1" enable-background="new 0 0 512 512" height="512" viewBox="0 0 512 512" width="512" xmlns="http://www.w3.org/2000/svg"><g fill="#454045"><path d="m101.993 170.862c-17.459 0-31.663 14.204-31.663 31.663s14.204 31.663 31.663 31.663 31.663-14.204 31.663-31.663-14.204-31.663-31.663-31.663z"/><path d="m23.537 178.988c-12.978 0-23.537 10.558-23.537 23.536 0 12.979 10.559 23.537 23.537 23.537s23.537-10.559 23.537-23.537-10.558-23.536-23.537-23.536z"/><path d="m309.476 154.167c-26.665 0-48.358 21.693-48.358 48.358s21.693 48.358 48.358 48.358c26.664 0 48.357-21.693 48.357-48.358s-21.693-48.358-48.357-48.358z"/><ellipse cx="202.525" cy="202.525" rx="48.358" ry="48.358" transform="matrix(.973 -.23 .23 .973 -41.113 51.949)"/><path d="m309.476 261.117c-26.665 0-48.358 21.693-48.358 48.358s21.693 48.358 48.358 48.358c26.664 0 48.357-21.693 48.357-48.358 0-26.664-21.693-48.358-48.357-48.358z"/><path d="m410.007 170.862c-17.459 0-31.663 14.204-31.663 31.663s14.204 31.663 31.663 31.663 31.663-14.204 31.663-31.663-14.204-31.663-31.663-31.663z"/><path d="m488.463 226.062c12.979 0 23.537-10.559 23.537-23.537s-10.559-23.537-23.537-23.537-23.537 10.559-23.537 23.537 10.558 23.537 23.537 23.537z"/><ellipse cx="202.525" cy="309.475" rx="48.358" ry="48.358" transform="matrix(.707 -.707 .707 .707 -159.514 233.85)"/><path d="m101.993 277.813c-17.459 0-31.663 14.204-31.663 31.663s14.204 31.663 31.663 31.663 31.663-14.204 31.663-31.663-14.204-31.663-31.663-31.663z"/><path d="m23.537 285.938c-12.978 0-23.537 10.559-23.537 23.538 0 12.978 10.559 23.537 23.537 23.537s23.537-10.559 23.537-23.537c0-12.979-10.558-23.538-23.537-23.538z"/><path d="m410.007 277.813c-17.459 0-31.663 14.204-31.663 31.663s14.204 31.663 31.663 31.663 31.663-14.204 31.663-31.663-14.204-31.663-31.663-31.663z"/><path d="m488.463 285.938c-12.979 0-23.537 10.559-23.537 23.537s10.559 23.537 23.537 23.537 23.537-10.558 23.537-23.536c0-12.979-10.559-23.538-23.537-23.538z"/><path d="m309.476 133.656c17.459 0 31.662-14.204 31.662-31.663s-14.203-31.663-31.662-31.663-31.663 14.204-31.663 31.663 14.204 31.663 31.663 31.663z"/><circle cx="410.007" cy="101.993" r="31.663"/><path d="m101.993 378.344c-17.459 0-31.663 14.204-31.663 31.663s14.204 31.663 31.663 31.663 31.663-14.204 31.663-31.663-14.204-31.663-31.663-31.663z"/><path d="m410.007 378.344c-17.459 0-31.663 14.204-31.663 31.663s14.204 31.663 31.663 31.663 31.663-14.204 31.663-31.663-14.204-31.663-31.663-31.663z"/><path d="m101.993 70.331c-17.459 0-31.663 14.204-31.663 31.663s14.204 31.663 31.663 31.663 31.663-14.204 31.663-31.663-14.204-31.663-31.663-31.663z"/><circle cx="309.476" cy="23.537" r="23.537"/><path d="m309.476 378.344c-17.459 0-31.663 14.204-31.663 31.663s14.204 31.663 31.663 31.663 31.662-14.204 31.662-31.663-14.203-31.663-31.662-31.663z"/><circle cx="309.476" cy="488.463" r="23.537"/><path d="m202.524 133.656c17.459 0 31.663-14.204 31.663-31.663s-14.204-31.663-31.663-31.663-31.663 14.204-31.663 31.663 14.204 31.663 31.663 31.663z"/><path d="m202.524 47.074c12.979 0 23.537-10.559 23.537-23.537.001-12.978-10.558-23.537-23.537-23.537-12.978 0-23.537 10.559-23.537 23.537.001 12.978 10.559 23.537 23.537 23.537z"/><path d="m202.524 378.344c-17.459 0-31.663 14.204-31.663 31.663s14.204 31.663 31.663 31.663 31.663-14.204 31.663-31.663-14.204-31.663-31.663-31.663z"/><path d="m202.524 464.926c-12.978 0-23.537 10.559-23.537 23.537s10.559 23.537 23.537 23.537c12.979 0 23.537-10.559 23.537-23.537s-10.558-23.537-23.537-23.537z"/></g></svg>